<?xml version="1.0" standalone="no"?>
<!DOCTYPE svg PUBLIC "-//W3C//DTD SVG 20010904//EN"
 "http://www.w3.org/TR/2001/REC-SVG-20010904/DTD/svg10.dtd">
<svg version="1.0" xmlns="http://www.w3.org/2000/svg"
 width="225.000000pt" height="225.000000pt" viewBox="0 0 225.000000 225.000000"
 preserveAspectRatio="xMidYMid meet">
<metadata>
Created by potrace 1.14, written by Peter Selinger 2001-2017
</metadata>
<g transform="translate(0.000000,225.000000) scale(0.100000,-0.100000)"
fill="#000000" stroke="none">
<path d="M1189 2127 c-54 -12 -109 -40 -109 -55 0 -4 -57 -7 -127 -7 -200 0
-235 -28 -235 -190 0 -54 6 -99 19 -138 l20 -58 -28 -54 c-38 -70 -64 -146
-85 -250 l-17 -84 -39 20 c-22 11 -41 19 -43 17 -2 -2 -18 -38 -34 -80 -35
-86 -65 -204 -56 -219 4 -5 31 -22 62 -37 l55 -28 -2 -197 c-1 -173 25 -644
36 -656 7 -8 203 17 277 35 l69 16 -5 42 c-9 70 -30 617 -24 623 3 3 57 -7
120 -23 63 -15 122 -24 131 -21 19 7 82 137 93 188 4 20 1 34 -7 39 -10 6 -8
22 10 74 12 37 19 73 16 81 -5 15 -50 29 -213 66 -57 12 -103 26 -103 29 0 15
51 154 61 166 9 11 20 8 62 -17 78 -46 153 -78 247 -106 72 -21 106 -26 222
-27 75 0 139 2 143 6 4 4 16 42 26 84 10 42 20 78 22 81 3 2 26 -21 53 -51 26
-31 50 -56 54 -56 7 0 97 144 146 233 l37 69 -49 50 c-123 127 -285 228 -439
274 -72 22 -85 30 -85 58 0 32 -37 85 -66 96 -43 17 -156 20 -215 7z m231 -42
c11 -12 24 -36 30 -54 8 -29 7 -32 -8 -24 -9 4 -54 8 -99 8 -72 0 -85 -3 -105
-23 -20 -19 -23 -33 -23 -92 l0 -70 -32 0 c-31 0 -33 2 -33 38 -1 56 -18 124
-41 155 -19 27 -20 30 -4 47 26 28 81 39 192 37 88 -2 105 -5 123 -22z m-365
-50 c33 -13 55 -46 55 -80 0 -11 -6 -12 -31 -3 -39 13 -133 4 -164 -16 -25
-16 -43 -86 -32 -126 6 -25 -18 -33 -89 -28 l-49 3 -3 60 c-4 73 5 136 22 160
29 40 221 60 291 30z m413 -400 l51 -15 -52 -150 c-40 -114 -56 -150 -69 -150
-22 0 -188 56 -198 67 -5 4 9 60 30 123 38 114 39 115 77 127 53 16 101 16
161 -2z m-264 -127 c-18 -55 -36 -103 -38 -106 -7 -6 -106 50 -106 60 0 25
142 148 171 148 4 0 -8 -46 -27 -102z m402 63 c32 -22 76 -54 96 -73 l37 -33
-20 -75 c-11 -41 -23 -77 -26 -80 -7 -7 -240 -6 -247 1 -7 7 86 298 95 299 3
0 32 -18 65 -39z m-614 -354 c-4 -26 -43 -109 -48 -104 -4 4 9 75 22 115 6 19
30 9 26 -11z m76 -8 c26 -6 52 -12 59 -14 9 -3 6 -21 -9 -67 -11 -35 -22 -64
-23 -65 -3 -5 -125 39 -125 45 0 19 35 112 42 112 5 0 30 -5 56 -11z m193 -56
c6 -6 -24 -116 -36 -130 -4 -6 -105 28 -105 35 0 5 9 36 21 69 l20 62 46 -14
c25 -8 49 -18 54 -22z"/>
</g>
</svg>
